<?xml version="1.0" encoding="UTF-8" standalone="no"?>
<svg
   xmlns:dc="http://purl.org/dc/elements/1.1/"
   xmlns:cc="http://creativecommons.org/ns#"
   xmlns:rdf="http://www.w3.org/1999/02/22-rdf-syntax-ns#"
   xmlns:svg="http://www.w3.org/2000/svg"
   xmlns="http://www.w3.org/2000/svg"
   xmlns:sodipodi="http://sodipodi.sourceforge.net/DTD/sodipodi-0.dtd"
   xmlns:inkscape="http://www.inkscape.org/namespaces/inkscape"
   id="Light"
   viewBox="0 0 712.92782 148"
   version="1.1"
   sodipodi:docname="logo.svg"
   width="712.9278"
   height="148"
   inkscape:version="0.92.2 5c3e80d, 2017-08-06">
  <metadata
     id="metadata2437">
    <rdf:RDF>
      <cc:Work
         rdf:about="">
        <dc:format>image/svg+xml</dc:format>
        <dc:type
           rdf:resource="http://purl.org/dc/dcmitype/StillImage" />
        <dc:title></dc:title>
      </cc:Work>
    </rdf:RDF>
  </metadata>
  <sodipodi:namedview
     pagecolor="#ffffff"
     bordercolor="#666666"
     borderopacity="1"
     objecttolerance="10"
     gridtolerance="10"
     guidetolerance="10"
     inkscape:pageopacity="0"
     inkscape:pageshadow="2"
     inkscape:window-width="989"
     inkscape:window-height="734"
     id="namedview2435"
     showgrid="false"
     fit-margin-top="0"
     fit-margin-left="0"
     fit-margin-right="0"
     fit-margin-bottom="0"
     inkscape:zoom="0.56109728"
     inkscape:cx="387.90939"
     inkscape:cy="33.503292"
     inkscape:window-x="143"
     inkscape:window-y="1"
     inkscape:window-maximized="0"
     inkscape:current-layer="Light" />
  <defs
     id="defs2411">
    <style
       id="style2409">.cls-1{fill:#44a4e0;}</style>
    <style
       id="style459">.cls-1{fill:#44a4e0;}</style>
  </defs>
  <path
     class="cls-1"
     d="m 219.22,47.779952 h -28.78 v 23.25 H 217 v 10.84 h -26.56 v 32.330008 h -12.8 V 36.899952 h 41.62 z"
     id="path2413"
     inkscape:connector-curvature="0"
     style="fill:#44a4e0" />
  <path
     class="cls-1"
     d="m 268.09,114.17996 h -12.1 v -8.62 h -0.21 q -5.7,9.91 -16.73,9.92 -8.12,0 -12.71,-4.42 -4.59,-4.42 -4.6,-11.700008 0,-15.63 18,-18.21 l 16.34,-2.32 q 0,-11.8 -11.18,-11.8 a 26.51,26.51 0 0 0 -17.74,6.79 v -10.94 a 38.6,38.6 0 0 1 20.11,-5.18 q 20.85,0 20.86,20.59 z m -12.05,-27.150008 -11.6,1.66 q -5.37,0.7 -8.09,2.61 -2.72,1.91 -2.67,6.73 a 7.36,7.36 0 0 0 2.5,5.740008 9.66,9.66 0 0 0 6.69,2.23 12.36,12.36 0 0 0 9.44,-4 14.27,14.27 0 0 0 3.73,-10.110008 z"
     id="path2415"
     inkscape:connector-curvature="0"
     style="fill:#44a4e0" />
  <path
     class="cls-1"
     d="m 330.77,114.17996 h -15.81 l -21.4,-26.510008 h -0.22 V 114.17996 H 280.82 V 32.479952 h 12.52 v 51.79 h 0.22 l 20.22,-25.24 h 15 l -22.75,26.62 z"
     id="path2417"
     inkscape:connector-curvature="0"
     style="fill:#44a4e0" />
  <path
     class="cls-1"
     d="m 380.54,90.029952 h -37.53 c 0.15,5.1 1.71,9 4.71,11.800008 3,2.8 7.1,4.15 12.34,4.15 a 27.18,27.18 0 0 0 16.18,-5.28 v 10.08 q -7.53,4.74 -19.89,4.74 -12.15,0 -19.06,-7.52 -6.91,-7.52 -6.91,-21.150008 0,-12.89 7.61,-21 a 24.87,24.87 0 0 1 18.89,-8.11 q 11.3,0 17.48,7.28 6.18,7.28 6.18,20.21 z m -12,-8.84 q -0.06,-6.75 -3.17,-10.49 a 10.62,10.62 0 0 0 -8.61,-3.74 12.1,12.1 0 0 0 -9.11,3.93 18.08,18.08 0 0 0 -4.6,10.3 z"
     id="path2419"
     inkscape:connector-curvature="0"
     style="fill:#44a4e0" />
  <path
     class="cls-1"
     d="m 465.71,47.779952 h -28.82 v 23.25 h 26.55 v 10.84 H 436.89 V 114.19996 H 424.1 V 36.899952 h 41.61 z"
     id="path2421"
     inkscape:connector-curvature="0"
     style="fill:#44a4e0" />
  <path
     class="cls-1"
     d="m 481.21,47.409952 a 7.49,7.49 0 0 1 -5.24,-2 6.54,6.54 0 0 1 -2.18,-5.06 6.7,6.7 0 0 1 2.18,-5.12 7.36,7.36 0 0 1 5.24,-2.05 7.61,7.61 0 0 1 5.38,2.05 6.68,6.68 0 0 1 2.2,5.12 6.58,6.58 0 0 1 -2.2,5 7.55,7.55 0 0 1 -5.38,2.06 z m 6.23,66.770008 H 474.92 V 59.029952 h 12.52 z"
     id="path2423"
     inkscape:connector-curvature="0"
     style="fill:#44a4e0" />
  <path
     class="cls-1"
     d="M 513.32,114.17996 H 500.79 V 32.479952 h 12.53 z"
     id="path2425"
     inkscape:connector-curvature="0"
     style="fill:#44a4e0" />
  <path
     class="cls-1"
     d="M 539.1,114.17996 H 526.57 V 32.479952 h 12.53 z"
     id="path2427"
     inkscape:connector-curvature="0"
     style="fill:#44a4e0" />
  <path
     class="cls-1"
     d="m 599.69,90.029952 h -37.53 q 0.21,7.65 4.7,11.800008 4.49,4.15 12.34,4.15 a 27.16,27.16 0 0 0 16.18,-5.28 v 10.08 q -7.53,4.74 -19.89,4.74 -12.15,0 -19.06,-7.52 -6.91,-7.52 -6.91,-21.150008 0,-12.89 7.61,-21 a 24.88,24.88 0 0 1 18.9,-8.11 q 11.28,0 17.47,7.28 6.19,7.28 6.19,20.21 z m -12,-8.84 q 0,-6.75 -3.17,-10.49 a 10.61,10.61 0 0 0 -8.6,-3.74 12.1,12.1 0 0 0 -9.12,3.93 18,18 0 0 0 -4.59,10.3 z"
     id="path2429"
     inkscape:connector-curvature="0"
     style="fill:#44a4e0" />
  <path
     class="cls-1"
     d="m 641.6,70.909952 q -2.25,-1.78 -6.5,-1.78 -5.55,0 -9.25,5 -3.7,5 -3.71,13.64 V 114.16996 H 609.66 V 59.029952 h 12.48 v 11.34 h 0.21 a 19.2,19.2 0 0 1 5.62,-9.08 12.65,12.65 0 0 1 8.47,-3.26 10.5,10.5 0 0 1 5.16,1 z"
     id="path2431"
     inkscape:connector-curvature="0"
     style="fill:#44a4e0" />
  <g
     transform="matrix(4.3706025,0,0,4.3706104,-2.6157531e-7,-1150.0713)"
     id="layer1"
     inkscape:label="Layer 1">
    <g
       transform="matrix(0.23027172,0,0,0.23027172,-89.805174,261.9422)"
       id="g501">
      <path
         transform="matrix(1.1490049,0,0,1.1490049,389.99654,5.1727585)"
         sodipodi:nodetypes="ccccccccccc"
         inkscape:connector-curvature="0"
         id="Layer_1-5"
         d="M 15.998047,0.015625 C 7.1724013,0.0393806 0.02375969,7.1880271 0,16.013672 V 112.00195 C 0.02375969,120.8276 7.1724013,127.97624 15.998047,128 h 76.099609 c 6.800903,0.004 12.923774,-4.11709 15.478514,-10.41992 l 19.19727,-47.285158 c 1.63456,-4.031845 1.63456,-8.542374 0,-12.574219 L 107.55859,10.392578 C 104.97783,4.1012923 98.844945,-8.8572166e-4 92.044922,0.015625 Z"
         style="fill:#44a4e0;stroke-width:0.86476183" />
      <g
         id="flowRoot503"
         style="font-style:normal;font-variant:normal;font-weight:normal;font-stretch:normal;font-size:40px;line-height:38.05984116px;font-family:Cafeteria;-inkscape-font-specification:Cafeteria;letter-spacing:0px;word-spacing:0px;fill:#000000;fill-opacity:1;stroke:none"
         transform="matrix(1.0972037,0,0,1.0972037,434.4536,39.196534)"
         aria-label="2" />
      <path
         inkscape:connector-curvature="0"
         id="path1322"
         d="m 463.47226,27.836409 c 9.81474,0.282729 15.63275,7.389987 15.63275,7.389987 0,0 6.61662,-8.087113 17.64575,-7.351837 6.24985,1.102914 4.41167,8.813181 0,9.180818 -2.57346,0 -12.91732,1.331365 -12.91732,9.6678 v 0.556549 62.876604 0.55655 c 0,8.33644 10.29418,9.66779 12.91732,9.66779 4.41167,0.36765 6.24985,8.07792 0,9.18083 -11.02913,0.73528 -17.64575,-7.35408 -17.64575,-7.35408 0,0 -6.61887,8.08936 -17.648,7.35408 -6.24984,-1.10291 -4.41164,-8.81318 0,-9.18083 2.57346,0 12.91733,-1.33135 12.91733,-9.66779 V 46.723177 c 0,-8.336435 -10.29418,-9.667799 -12.91733,-9.6678 -4.41164,-0.367637 -6.24984,-8.077904 0,-9.180818 0.68933,-0.04596 1.36094,-0.057 2.01525,-0.03815 z m -29.93023,12.836539 c 5.24601,0 9.72144,0.82276 13.42451,2.468566 2.40013,1.097203 4.50901,2.606344 6.32626,4.526451 1.81724,1.920105 3.22241,4.148039 4.21675,6.685321 1.02863,2.503 1.54398,5.1099 1.54398,7.81862 0,4.25167 -1.0631,8.12512 -3.18894,11.62245 -2.09154,3.46305 -4.23508,6.18901 -6.42949,8.17769 -2.19441,1.95439 -5.8795,5.03974 -11.05693,9.25712 -5.14314,4.21737 -8.67452,7.49333 -10.59463,9.824894 -0.8229,0.92576 -1.66299,2.03861 -2.52018,3.34154 h 26.84677 c 2.67443,0 4.714,0.55 6.1198,1.6472 1.40579,1.09721 2.1095,2.58678 2.1095,4.47259 0,1.6801 -0.56733,3.10484 -1.69882,4.27062 -1.09721,1.16578 -2.77738,1.7482 -5.04036,1.7482 h -37.85209 c -2.57157,0 -4.57873,-0.70371 -6.01881,-2.10951 -1.44008,-1.44008 -2.15887,-3.12025 -2.15887,-5.04036 0,-1.23435 0.46336,-2.86254 1.38913,-4.88551 0.92576,-2.05726 1.93689,-3.66812 3.03409,-4.833904 4.56025,-4.73169 8.67405,-8.77842 12.34283,-12.13861 3.66877,-3.39447 6.29076,-5.62241 7.86799,-6.68532 2.81158,-1.98869 5.14348,-3.97852 6.99501,-5.9672 1.88582,-2.02297 3.31057,-4.07987 4.27062,-6.17141 0.99434,-2.12583 1.49012,-4.20006 1.49012,-6.22303 0,-2.19441 -0.53043,-4.14958 -1.59335,-5.86397 -1.02863,-1.74866 -2.45113,-3.10185 -4.26837,-4.061907 -1.78296,-0.960053 -3.73814,-1.440744 -5.86397,-1.440744 -4.49168,0 -8.02306,1.972501 -10.59463,5.915581 -0.34288,0.51431 -0.92529,1.91949 -1.74819,4.21676 -0.78862,2.29727 -1.69802,4.06408 -2.72665,5.29844 -0.99434,1.23435 -2.46882,1.85142 -4.42322,1.85142 -1.71438,0 -3.13688,-0.56733 -4.26837,-1.69882 -1.13149,-1.13149 -1.69882,-2.67305 -1.69882,-4.62744 0,-2.36585 0.53267,-4.83412 1.59559,-7.4057 1.06291,-2.571567 2.63912,-4.903468 4.73067,-6.995011 2.12583,-2.091546 4.80204,-3.771721 8.02508,-5.040362 3.25732,-1.302929 7.06146,-1.954655 11.41599,-1.954655 z"
         style="fill:#ffffff;fill-opacity:1;stroke-width:0.99361557"
         sodipodi:nodetypes="ccccsccscccccssccccscscscccccssscsscsccccccsccscccssssccs" />
    </g>
  </g>
  <text
     xml:space="preserve"
     style="font-style:normal;font-variant:normal;font-weight:normal;font-stretch:normal;font-size:59.49038315px;line-height:56.6048584px;font-family:Cafeteria;-inkscape-font-specification:Cafeteria;letter-spacing:0px;word-spacing:0px;fill:#44a4e0;fill-opacity:1;stroke:none;stroke-width:1.48725963"
     x="656.75275"
     y="115.51995"
     id="text6210"><tspan
       sodipodi:role="line"
       id="tspan6208"
       x="656.75275"
       y="115.51995"
       style="font-style:normal;font-variant:normal;font-weight:bold;font-stretch:normal;font-size:111.04870605px;font-family:Arial;-inkscape-font-specification:'Arial Bold';fill:#44a4e0;fill-opacity:1;stroke-width:1.48725963">2</tspan></text>
</svg>
