<?xml version="1.0" encoding="UTF-8" standalone="no"?>
<svg
   xmlns:dc="http://purl.org/dc/elements/1.1/"
   xmlns:cc="http://creativecommons.org/ns#"
   xmlns:rdf="http://www.w3.org/1999/02/22-rdf-syntax-ns#"
   xmlns:svg="http://www.w3.org/2000/svg"
   xmlns="http://www.w3.org/2000/svg"
   xmlns:sodipodi="http://sodipodi.sourceforge.net/DTD/sodipodi-0.dtd"
   xmlns:inkscape="http://www.inkscape.org/namespaces/inkscape"
   id="Dark"
   viewBox="0 0 712.92807 148.00006"
   version="1.1"
   sodipodi:docname="logo-white.svg"
   width="712.92804"
   height="148.00006"
   inkscape:version="0.92.2 5c3e80d, 2017-08-06">
  <metadata
     id="metadata2269">
    <rdf:RDF>
      <cc:Work
         rdf:about="">
        <dc:format>image/svg+xml</dc:format>
        <dc:type
           rdf:resource="http://purl.org/dc/dcmitype/StillImage" />
        <dc:title></dc:title>
      </cc:Work>
    </rdf:RDF>
  </metadata>
  <sodipodi:namedview
     pagecolor="#ffffff"
     bordercolor="#666666"
     borderopacity="1"
     objecttolerance="10"
     gridtolerance="10"
     guidetolerance="10"
     inkscape:pageopacity="0"
     inkscape:pageshadow="2"
     inkscape:window-width="984"
     inkscape:window-height="645"
     id="namedview2267"
     showgrid="false"
     inkscape:pagecheckerboard="true"
     fit-margin-top="0"
     fit-margin-left="0"
     fit-margin-right="0"
     fit-margin-bottom="0"
     inkscape:zoom="0.56109728"
     inkscape:cx="-33.196117"
     inkscape:cy="74"
     inkscape:window-x="124"
     inkscape:window-y="42"
     inkscape:window-maximized="0"
     inkscape:current-layer="Dark" />
  <defs
     id="defs2243">
    <style
       id="style2241">.cls-1{fill:#fff;}</style>
    <style
       id="style2365">.cls-1{fill:#44a4e0;}</style>
    <style
       id="style2409">.cls-1{fill:#44a4e0;}</style>
    <style
       id="style459">.cls-1{fill:#44a4e0;}</style>
  </defs>
  <g
     id="g6868"
     transform="translate(2.8605623e-4,-4.7389873e-4)">
    <path
       style="fill:#ffffff;fill-opacity:1"
       inkscape:connector-curvature="0"
       id="path2413"
       d="m 219.22,47.779952 h -28.78 v 23.25 H 217 v 10.84 h -26.56 v 32.330008 h -12.8 V 36.899952 h 41.62 z"
       class="cls-1" />
    <path
       style="fill:#ffffff;fill-opacity:1"
       inkscape:connector-curvature="0"
       id="path2415"
       d="m 268.09,114.17996 h -12.1 v -8.62 h -0.21 q -5.7,9.91 -16.73,9.92 -8.12,0 -12.71,-4.42 -4.59,-4.42 -4.6,-11.700008 0,-15.63 18,-18.21 l 16.34,-2.32 q 0,-11.8 -11.18,-11.8 a 26.51,26.51 0 0 0 -17.74,6.79 v -10.94 a 38.6,38.6 0 0 1 20.11,-5.18 q 20.85,0 20.86,20.59 z m -12.05,-27.150008 -11.6,1.66 q -5.37,0.7 -8.09,2.61 -2.72,1.91 -2.67,6.73 a 7.36,7.36 0 0 0 2.5,5.740008 9.66,9.66 0 0 0 6.69,2.23 12.36,12.36 0 0 0 9.44,-4 14.27,14.27 0 0 0 3.73,-10.110008 z"
       class="cls-1" />
    <path
       style="fill:#ffffff;fill-opacity:1"
       inkscape:connector-curvature="0"
       id="path2417"
       d="m 330.77,114.17996 h -15.81 l -21.4,-26.510008 h -0.22 V 114.17996 H 280.82 V 32.479952 h 12.52 v 51.79 h 0.22 l 20.22,-25.24 h 15 l -22.75,26.62 z"
       class="cls-1" />
    <path
       style="fill:#ffffff;fill-opacity:1"
       inkscape:connector-curvature="0"
       id="path2419"
       d="m 380.54,90.029952 h -37.53 c 0.15,5.1 1.71,9 4.71,11.800008 3,2.8 7.1,4.15 12.34,4.15 a 27.18,27.18 0 0 0 16.18,-5.28 v 10.08 q -7.53,4.74 -19.89,4.74 -12.15,0 -19.06,-7.52 -6.91,-7.52 -6.91,-21.150008 0,-12.89 7.61,-21 a 24.87,24.87 0 0 1 18.89,-8.11 q 11.3,0 17.48,7.28 6.18,7.28 6.18,20.21 z m -12,-8.84 q -0.06,-6.75 -3.17,-10.49 a 10.62,10.62 0 0 0 -8.61,-3.74 12.1,12.1 0 0 0 -9.11,3.93 18.08,18.08 0 0 0 -4.6,10.3 z"
       class="cls-1" />
    <path
       style="fill:#ffffff;fill-opacity:1"
       inkscape:connector-curvature="0"
       id="path2421"
       d="m 465.71,47.779952 h -28.82 v 23.25 h 26.55 v 10.84 H 436.89 V 114.19996 H 424.1 V 36.899952 h 41.61 z"
       class="cls-1" />
    <path
       style="fill:#ffffff;fill-opacity:1"
       inkscape:connector-curvature="0"
       id="path2423"
       d="m 481.21,47.409952 a 7.49,7.49 0 0 1 -5.24,-2 6.54,6.54 0 0 1 -2.18,-5.06 6.7,6.7 0 0 1 2.18,-5.12 7.36,7.36 0 0 1 5.24,-2.05 7.61,7.61 0 0 1 5.38,2.05 6.68,6.68 0 0 1 2.2,5.12 6.58,6.58 0 0 1 -2.2,5 7.55,7.55 0 0 1 -5.38,2.06 z m 6.23,66.770008 H 474.92 V 59.029952 h 12.52 z"
       class="cls-1" />
    <path
       style="fill:#ffffff;fill-opacity:1"
       inkscape:connector-curvature="0"
       id="path2425"
       d="M 513.32,114.17996 H 500.79 V 32.479952 h 12.53 z"
       class="cls-1" />
    <path
       style="fill:#ffffff;fill-opacity:1"
       inkscape:connector-curvature="0"
       id="path2427"
       d="M 539.1,114.17996 H 526.57 V 32.479952 h 12.53 z"
       class="cls-1" />
    <path
       style="fill:#ffffff;fill-opacity:1"
       inkscape:connector-curvature="0"
       id="path2429"
       d="m 599.69,90.029952 h -37.53 q 0.21,7.65 4.7,11.800008 4.49,4.15 12.34,4.15 a 27.16,27.16 0 0 0 16.18,-5.28 v 10.08 q -7.53,4.74 -19.89,4.74 -12.15,0 -19.06,-7.52 -6.91,-7.52 -6.91,-21.150008 0,-12.89 7.61,-21 a 24.88,24.88 0 0 1 18.9,-8.11 q 11.28,0 17.47,7.28 6.19,7.28 6.19,20.21 z m -12,-8.84 q 0,-6.75 -3.17,-10.49 a 10.61,10.61 0 0 0 -8.6,-3.74 12.1,12.1 0 0 0 -9.12,3.93 18,18 0 0 0 -4.59,10.3 z"
       class="cls-1" />
    <path
       style="fill:#ffffff;fill-opacity:1"
       inkscape:connector-curvature="0"
       id="path2431"
       d="m 641.6,70.909952 q -2.25,-1.78 -6.5,-1.78 -5.55,0 -9.25,5 -3.7,5 -3.71,13.64 V 114.16996 H 609.66 V 59.029952 h 12.48 v 11.34 h 0.21 a 19.2,19.2 0 0 1 5.62,-9.08 12.65,12.65 0 0 1 8.47,-3.26 10.5,10.5 0 0 1 5.16,1 z"
       class="cls-1" />
    <g
       inkscape:label="Layer 1"
       id="layer1"
       transform="matrix(4.3706025,0,0,4.3706104,-2.6157531e-7,-1150.0713)">
      <g
         id="g501"
         transform="matrix(0.23027172,0,0,0.23027172,-89.805174,261.9422)">
        <path
           style="fill:#ffffff;fill-opacity:1;stroke-width:1.00000167"
           d="m -67.066406,206.73828 c -10.205876,0.0275 -18.472525,8.29411 -18.5,18.5 v 111 c 0.02747,10.2059 8.294124,18.47253 18.5,18.5 h 88 c 7.864486,0.005 14.946118,-4.76225 17.90039,-12.05078 l 22.199219,-54.67969 c 1.890187,-4.66239 1.890187,-9.87863 0,-14.54101 L 38.8125,218.73828 c -2.984361,-7.27518 -10.075984,-12.01909 -17.939453,-12 z m 55.447265,22.79102 c 9.8778114,0.28454 15.7343754,7.4375 15.7343754,7.4375 0,0 6.6597606,-8.13844 17.7597656,-7.39844 6.290013,1.11 4.44002,8.86828 0,9.23828 -2.589997,0 -13.0019531,1.34045 -13.0019531,9.73047 v 0.56055 63.28125 0.55859 c 0,8.39003 10.3619561,9.73047 13.0019531,9.73047 4.44002,0.37001 6.290013,8.13023 0,9.24023 -11.100005,0.74001 -17.7597656,-7.40234 -17.7597656,-7.40234 0,0 -6.6617139,8.14235 -17.7617184,7.40234 -6.290003,-1.11 -4.43999,-8.87022 0,-9.24023 2.589997,0 12.99999962,-1.34044 12.99999962,-9.73047 v -64.40039 c 0,-8.39002 -10.35999362,-9.73047 -12.99999962,-9.73047 -4.43999,-0.37 -6.290003,-8.12828 0,-9.23828 0.693759,-0.0463 1.368829,-0.058 2.027343,-0.0391 z m -30.121093,12.91797 c 5.279721,0 9.782899,0.82799 13.509765,2.48437 2.415554,1.10426 4.53826,2.62419 6.367188,4.55664 1.828918,1.93245 3.243411,4.17493 4.24414,6.72852 1.035241,2.51909 1.554688,5.14301 1.554688,7.86914 0,4.279 -1.071437,8.17745 -3.210938,11.69726 -2.10498,3.48531 -4.262191,6.22901 -6.470703,8.23047 -2.208511,1.96695 -5.916252,5.07192 -11.126953,9.31641 -5.17619,4.24448 -8.731613,7.54017 -10.664062,9.88672 -0.828188,0.93171 -1.672458,2.05197 -2.535157,3.36328 h 27.019532 c 2.691616,0 4.743369,0.55395 6.158203,1.6582 1.414824,1.10426 2.123047,2.60402 2.123047,4.50195 0,1.6909 -0.570224,3.12361 -1.708985,4.29688 -1.104261,1.17327 -2.794743,1.75977 -5.072265,1.75977 h -38.095704 c -2.588095,0 -4.609259,-0.70822 -6.058593,-2.12305 -1.449334,-1.44934 -2.171875,-3.13982 -2.171875,-5.07227 0,-1.24228 0.466718,-2.88199 1.398437,-4.91797 0.931709,-2.07048 1.948484,-3.69195 3.052735,-4.86523 4.589554,-4.76211 8.729518,-8.83306 12.421875,-12.21484 3.692346,-3.41629 6.332556,-5.65878 7.919921,-6.72852 2.829648,-2.00147 5.175635,-4.0044 7.039063,-6.00586 1.897939,-2.03597 3.332609,-4.10595 4.298828,-6.21094 1.00073,-2.13949 1.498047,-4.2277 1.498047,-6.26367 0,-2.20851 -0.533765,-4.17693 -1.603516,-5.90234 -1.03524,-1.7599 -2.466004,-3.12166 -4.294922,-4.08789 -1.794417,-0.96623 -3.762852,-1.44922 -5.902343,-1.44922 -4.520544,0 -8.074014,1.9847 -10.66211,5.95312 -0.345083,0.51762 -0.931577,1.93211 -1.759765,4.24414 -0.793688,2.31204 -1.708901,4.08974 -2.744141,5.33204 -1.00073,1.24228 -2.484212,1.86328 -4.451172,1.86328 -1.725397,0 -3.158114,-0.57022 -4.296875,-1.70899 -1.138761,-1.13876 -1.708984,-2.69125 -1.708984,-4.6582 0,-2.38106 0.535718,-4.86502 1.605469,-7.45313 1.06974,-2.58809 2.656728,-4.93407 4.761718,-7.03906 2.139491,-2.10499 4.83242,-3.79547 8.076172,-5.07226 3.278252,-1.31131 7.107722,-1.96875 11.490235,-1.96875 z"
           transform="matrix(0.99361488,0,0,0.99361308,475.01631,-200.2267)"
           id="Layer_1-5"
           inkscape:connector-curvature="0" />
        <g
           aria-label="2"
           transform="matrix(1.0972037,0,0,1.0972037,434.4536,39.196534)"
           style="font-style:normal;font-variant:normal;font-weight:normal;font-stretch:normal;font-size:40px;line-height:38.05984116px;font-family:Cafeteria;-inkscape-font-specification:Cafeteria;letter-spacing:0px;word-spacing:0px;fill:#000000;fill-opacity:1;stroke:none"
           id="flowRoot503" />
      </g>
    </g>
    <text
       id="text6210"
       y="115.51995"
       x="656.75275"
       style="font-style:normal;font-variant:normal;font-weight:normal;font-stretch:normal;font-size:59.49038315px;line-height:56.6048584px;font-family:Cafeteria;-inkscape-font-specification:Cafeteria;letter-spacing:0px;word-spacing:0px;fill:#ffffff;fill-opacity:1;stroke:none;stroke-width:1.48725963"
       xml:space="preserve"><tspan
         style="font-style:normal;font-variant:normal;font-weight:bold;font-stretch:normal;font-size:111.04870605px;font-family:Arial;-inkscape-font-specification:'Arial Bold';fill:#ffffff;fill-opacity:1;stroke-width:1.48725963"
         y="115.51995"
         x="656.75275"
         id="tspan6208"
         sodipodi:role="line">2</tspan></text>
  </g>
</svg>
