<?xml version="1.0" encoding="UTF-8" standalone="no"?>
<!-- Created with Inkscape (http://www.inkscape.org/) -->

<svg
   xmlns:dc="http://purl.org/dc/elements/1.1/"
   xmlns:cc="http://creativecommons.org/ns#"
   xmlns:rdf="http://www.w3.org/1999/02/22-rdf-syntax-ns#"
   xmlns:svg="http://www.w3.org/2000/svg"
   xmlns="http://www.w3.org/2000/svg"
   xmlns:xlink="http://www.w3.org/1999/xlink"
   xmlns:sodipodi="http://sodipodi.sourceforge.net/DTD/sodipodi-0.dtd"
   xmlns:inkscape="http://www.inkscape.org/namespaces/inkscape"
   width="128"
   height="128"
   viewBox="0 0 33.866666 33.866666"
   version="1.1"
   id="svg150"
   inkscape:version="0.92.2 5c3e80d, 2017-08-06"
   sodipodi:docname="fakeFiller2Logo.svg"
   inkscape:export-filename="/Users/jim/Documents/GitHub/fake-filler-extension/public/images/icon-64.png"
   inkscape:export-xdpi="48"
   inkscape:export-ydpi="48">
  <defs
     id="defs144">
    <style
       id="style459">.cls-1{fill:#44a4e0;}</style>
  </defs>
  <sodipodi:namedview
     id="base"
     pagecolor="#ffffff"
     bordercolor="#666666"
     borderopacity="1.0"
     inkscape:pageopacity="0.0"
     inkscape:pageshadow="2"
     inkscape:zoom="1"
     inkscape:cx="-66.041066"
     inkscape:cy="110.11124"
     inkscape:document-units="mm"
     inkscape:current-layer="g501"
     showgrid="false"
     inkscape:window-width="1280"
     inkscape:window-height="755"
     inkscape:window-x="23"
     inkscape:window-y="18"
     inkscape:window-maximized="0"
     units="px" />
  <metadata
     id="metadata147">
    <rdf:RDF>
      <cc:Work
         rdf:about="">
        <dc:format>image/svg+xml</dc:format>
        <dc:type
           rdf:resource="http://purl.org/dc/dcmitype/StillImage" />
        <dc:title></dc:title>
      </cc:Work>
    </rdf:RDF>
  </metadata>
  <g
     inkscape:label="Layer 1"
     inkscape:groupmode="layer"
     id="layer1"
     transform="translate(0,-263.13334)">
    <g
       id="g501"
       transform="matrix(0.23027172,0,0,0.23027172,-89.805174,261.9422)">
      <path
         style="fill:#44a4e0;stroke-width:0.86476183"
         d="M 15.998047,0.015625 C 7.1724013,0.0393806 0.02375969,7.1880271 0,16.013672 V 112.00195 C 0.02375969,120.8276 7.1724013,127.97624 15.998047,128 h 76.099609 c 6.800903,0.004 12.923774,-4.11709 15.478514,-10.41992 l 19.19727,-47.285158 c 1.63456,-4.031845 1.63456,-8.542374 0,-12.574219 L 107.55859,10.392578 C 104.97783,4.1012923 98.844945,-8.8572166e-4 92.044922,0.015625 Z"
         id="Layer_1"
         inkscape:connector-curvature="0"
         sodipodi:nodetypes="ccccccccccc"
         transform="matrix(1.1490049,0,0,1.1490049,389.99654,5.1727585)" />
      <g
         aria-label="2"
         transform="matrix(1.0972037,0,0,1.0972037,434.4536,39.196534)"
         style="font-style:normal;font-variant:normal;font-weight:normal;font-stretch:normal;font-size:40px;line-height:38.05984116px;font-family:Cafeteria;-inkscape-font-specification:Cafeteria;letter-spacing:0px;word-spacing:0px;fill:#000000;fill-opacity:1;stroke:none"
         id="flowRoot503" />
      <path
         sodipodi:nodetypes="ccccsccscccccssccccscscscccccssscsscsccccccsccscccssssccs"
         style="fill:#ffffff;fill-opacity:1;stroke-width:0.99361557"
         d="m 463.47226,27.836409 c 9.81474,0.282729 15.63275,7.389987 15.63275,7.389987 0,0 6.61662,-8.087113 17.64575,-7.351837 6.24985,1.102914 4.41167,8.813181 0,9.180818 -2.57346,0 -12.91732,1.331365 -12.91732,9.6678 v 0.556549 62.876604 0.55655 c 0,8.33644 10.29418,9.66779 12.91732,9.66779 4.41167,0.36765 6.24985,8.07792 0,9.18083 -11.02913,0.73528 -17.64575,-7.35408 -17.64575,-7.35408 0,0 -6.61887,8.08936 -17.648,7.35408 -6.24984,-1.10291 -4.41164,-8.81318 0,-9.18083 2.57346,0 12.91733,-1.33135 12.91733,-9.66779 V 46.723177 c 0,-8.336435 -10.29418,-9.667799 -12.91733,-9.6678 -4.41164,-0.367637 -6.24984,-8.077904 0,-9.180818 0.68933,-0.04596 1.36094,-0.057 2.01525,-0.03815 z m -29.93023,12.836539 c 5.24601,0 9.72144,0.82276 13.42451,2.468566 2.40013,1.097203 4.50901,2.606344 6.32626,4.526451 1.81724,1.920105 3.22241,4.148039 4.21675,6.685321 1.02863,2.503 1.54398,5.1099 1.54398,7.81862 0,4.25167 -1.0631,8.12512 -3.18894,11.62245 -2.09154,3.46305 -4.23508,6.18901 -6.42949,8.17769 -2.19441,1.95439 -5.8795,5.03974 -11.05693,9.25712 -5.14314,4.21737 -8.67452,7.49333 -10.59463,9.824894 -0.8229,0.92576 -1.66299,2.03861 -2.52018,3.34154 h 26.84677 c 2.67443,0 4.714,0.55 6.1198,1.6472 1.40579,1.09721 2.1095,2.58678 2.1095,4.47259 0,1.6801 -0.56733,3.10484 -1.69882,4.27062 -1.09721,1.16578 -2.77738,1.7482 -5.04036,1.7482 h -37.85209 c -2.57157,0 -4.57873,-0.70371 -6.01881,-2.10951 -1.44008,-1.44008 -2.15887,-3.12025 -2.15887,-5.04036 0,-1.23435 0.46336,-2.86254 1.38913,-4.88551 0.92576,-2.05726 1.93689,-3.66812 3.03409,-4.833904 4.56025,-4.73169 8.67405,-8.77842 12.34283,-12.13861 3.66877,-3.39447 6.29076,-5.62241 7.86799,-6.68532 2.81158,-1.98869 5.14348,-3.97852 6.99501,-5.9672 1.88582,-2.02297 3.31057,-4.07987 4.27062,-6.17141 0.99434,-2.12583 1.49012,-4.20006 1.49012,-6.22303 0,-2.19441 -0.53043,-4.14958 -1.59335,-5.86397 -1.02863,-1.74866 -2.45113,-3.10185 -4.26837,-4.061907 -1.78296,-0.960053 -3.73814,-1.440744 -5.86397,-1.440744 -4.49168,0 -8.02306,1.972501 -10.59463,5.915581 -0.34288,0.51431 -0.92529,1.91949 -1.74819,4.21676 -0.78862,2.29727 -1.69802,4.06408 -2.72665,5.29844 -0.99434,1.23435 -2.46882,1.85142 -4.42322,1.85142 -1.71438,0 -3.13688,-0.56733 -4.26837,-1.69882 -1.13149,-1.13149 -1.69882,-2.67305 -1.69882,-4.62744 0,-2.36585 0.53267,-4.83412 1.59559,-7.4057 1.06291,-2.571567 2.63912,-4.903468 4.73067,-6.995011 2.12583,-2.091546 4.80204,-3.771721 8.02508,-5.040362 3.25732,-1.302929 7.06146,-1.954655 11.41599,-1.954655 z"
         id="path1322"
         inkscape:connector-curvature="0" />
      <use
         id="use2165"
         x="0"
         y="0"
         width="100%"
         height="100%"
         inkscape:spray-origin="#path1322"
         xlink:href="#path1322"
         transform="translate(-451.74491,-287.95232)" />
    </g>
  </g>
</svg>
