<?xml version="1.0" encoding="UTF-8" standalone="no"?>
<svg
   xmlns:dc="http://purl.org/dc/elements/1.1/"
   xmlns:cc="http://creativecommons.org/ns#"
   xmlns:rdf="http://www.w3.org/1999/02/22-rdf-syntax-ns#"
   xmlns:svg="http://www.w3.org/2000/svg"
   xmlns="http://www.w3.org/2000/svg"
   xmlns:sodipodi="http://sodipodi.sourceforge.net/DTD/sodipodi-0.dtd"
   xmlns:inkscape="http://www.inkscape.org/namespaces/inkscape"
   id="Light"
   viewBox="0 0 440.00002 280"
   version="1.1"
   sodipodi:docname="smallPromoTile.svg"
   width="440"
   height="280"
   inkscape:version="0.92.2 5c3e80d, 2017-08-06">
  <metadata
     id="metadata2437">
    <rdf:RDF>
      <cc:Work
         rdf:about="">
        <dc:format>image/svg+xml</dc:format>
        <dc:type
           rdf:resource="http://purl.org/dc/dcmitype/StillImage" />
        <dc:title></dc:title>
      </cc:Work>
    </rdf:RDF>
  </metadata>
  <sodipodi:namedview
     pagecolor="#ffffff"
     bordercolor="#666666"
     borderopacity="1"
     objecttolerance="10"
     gridtolerance="10"
     guidetolerance="10"
     inkscape:pageopacity="0"
     inkscape:pageshadow="2"
     inkscape:window-width="989"
     inkscape:window-height="734"
     id="namedview2435"
     showgrid="false"
     fit-margin-top="0"
     fit-margin-left="0"
     fit-margin-right="0"
     fit-margin-bottom="0"
     inkscape:zoom="0.79351138"
     inkscape:cx="172.53938"
     inkscape:cy="204.15274"
     inkscape:window-x="178"
     inkscape:window-y="8"
     inkscape:window-maximized="0"
     inkscape:current-layer="Light" />
  <defs
     id="defs2411">
    <style
       id="style2409">.cls-1{fill:#44a4e0;}</style>
    <style
       id="style459">.cls-1{fill:#44a4e0;}</style>
  </defs>
  <rect
     style="opacity:1;fill:#e0eef7;fill-opacity:1;stroke:none;stroke-width:6.35825396;stroke-miterlimit:4;stroke-dasharray:none;stroke-opacity:1"
     id="rect1417"
     width="440"
     height="280"
     x="-440"
     y="0"
     ry="0"
     transform="scale(-1,1)" />
  <g
     transform="matrix(2.9751732,0,0,2.9751786,169.62065,-726.02026)"
     id="layer1"
     inkscape:label="Layer 1">
    <g
       transform="matrix(0.23027172,0,0,0.23027172,-89.805174,261.9422)"
       id="g501">
      <path
         transform="matrix(1.1490049,0,0,1.1490049,389.99654,5.1727585)"
         sodipodi:nodetypes="ccccccccccc"
         inkscape:connector-curvature="0"
         id="Layer_1-5"
         d="M 15.998047,0.015625 C 7.1724013,0.0393806 0.02375969,7.1880271 0,16.013672 V 112.00195 C 0.02375969,120.8276 7.1724013,127.97624 15.998047,128 h 76.099609 c 6.800903,0.004 12.923774,-4.11709 15.478514,-10.41992 l 19.19727,-47.285158 c 1.63456,-4.031845 1.63456,-8.542374 0,-12.574219 L 107.55859,10.392578 C 104.97783,4.1012923 98.844945,-8.8572166e-4 92.044922,0.015625 Z"
         style="fill:#44a4e0;stroke-width:0.86476183" />
      <g
         id="flowRoot503"
         style="font-style:normal;font-variant:normal;font-weight:normal;font-stretch:normal;font-size:40px;line-height:38.05984116px;font-family:Cafeteria;-inkscape-font-specification:Cafeteria;letter-spacing:0px;word-spacing:0px;fill:#000000;fill-opacity:1;stroke:none"
         transform="matrix(1.0972037,0,0,1.0972037,434.4536,39.196534)"
         aria-label="2" />
      <path
         inkscape:connector-curvature="0"
         id="path1322"
         d="m 463.47226,27.836409 c 9.81474,0.282729 15.63275,7.389987 15.63275,7.389987 0,0 6.61662,-8.087113 17.64575,-7.351837 6.24985,1.102914 4.41167,8.813181 0,9.180818 -2.57346,0 -12.91732,1.331365 -12.91732,9.6678 v 0.556549 62.876604 0.55655 c 0,8.33644 10.29418,9.66779 12.91732,9.66779 4.41167,0.36765 6.24985,8.07792 0,9.18083 -11.02913,0.73528 -17.64575,-7.35408 -17.64575,-7.35408 0,0 -6.61887,8.08936 -17.648,7.35408 -6.24984,-1.10291 -4.41164,-8.81318 0,-9.18083 2.57346,0 12.91733,-1.33135 12.91733,-9.66779 V 46.723177 c 0,-8.336435 -10.29418,-9.667799 -12.91733,-9.6678 -4.41164,-0.367637 -6.24984,-8.077904 0,-9.180818 0.68933,-0.04596 1.36094,-0.057 2.01525,-0.03815 z m -29.93023,12.836539 c 5.24601,0 9.72144,0.82276 13.42451,2.468566 2.40013,1.097203 4.50901,2.606344 6.32626,4.526451 1.81724,1.920105 3.22241,4.148039 4.21675,6.685321 1.02863,2.503 1.54398,5.1099 1.54398,7.81862 0,4.25167 -1.0631,8.12512 -3.18894,11.62245 -2.09154,3.46305 -4.23508,6.18901 -6.42949,8.17769 -2.19441,1.95439 -5.8795,5.03974 -11.05693,9.25712 -5.14314,4.21737 -8.67452,7.49333 -10.59463,9.824894 -0.8229,0.92576 -1.66299,2.03861 -2.52018,3.34154 h 26.84677 c 2.67443,0 4.714,0.55 6.1198,1.6472 1.40579,1.09721 2.1095,2.58678 2.1095,4.47259 0,1.6801 -0.56733,3.10484 -1.69882,4.27062 -1.09721,1.16578 -2.77738,1.7482 -5.04036,1.7482 h -37.85209 c -2.57157,0 -4.57873,-0.70371 -6.01881,-2.10951 -1.44008,-1.44008 -2.15887,-3.12025 -2.15887,-5.04036 0,-1.23435 0.46336,-2.86254 1.38913,-4.88551 0.92576,-2.05726 1.93689,-3.66812 3.03409,-4.833904 4.56025,-4.73169 8.67405,-8.77842 12.34283,-12.13861 3.66877,-3.39447 6.29076,-5.62241 7.86799,-6.68532 2.81158,-1.98869 5.14348,-3.97852 6.99501,-5.9672 1.88582,-2.02297 3.31057,-4.07987 4.27062,-6.17141 0.99434,-2.12583 1.49012,-4.20006 1.49012,-6.22303 0,-2.19441 -0.53043,-4.14958 -1.59335,-5.86397 -1.02863,-1.74866 -2.45113,-3.10185 -4.26837,-4.061907 -1.78296,-0.960053 -3.73814,-1.440744 -5.86397,-1.440744 -4.49168,0 -8.02306,1.972501 -10.59463,5.915581 -0.34288,0.51431 -0.92529,1.91949 -1.74819,4.21676 -0.78862,2.29727 -1.69802,4.06408 -2.72665,5.29844 -0.99434,1.23435 -2.46882,1.85142 -4.42322,1.85142 -1.71438,0 -3.13688,-0.56733 -4.26837,-1.69882 -1.13149,-1.13149 -1.69882,-2.67305 -1.69882,-4.62744 0,-2.36585 0.53267,-4.83412 1.59559,-7.4057 1.06291,-2.571567 2.63912,-4.903468 4.73067,-6.995011 2.12583,-2.091546 4.80204,-3.771721 8.02508,-5.040362 3.25732,-1.302929 7.06146,-1.954655 11.41599,-1.954655 z"
         style="fill:#ffffff;fill-opacity:1;stroke-width:0.99361557"
         sodipodi:nodetypes="ccccsccscccccssccccscscscccccssscsscsccccccsccscccssssccs" />
    </g>
  </g>
  <g
     id="g1415"
     transform="translate(-21.416876)">
    <path
       style="fill:#44a4e0;stroke-width:0.60453129"
       inkscape:connector-curvature="0"
       id="path2413"
       d="M 104.75419,181.74928 H 87.355784 v 14.05535 h 16.056346 v 6.55312 H 87.355784 v 19.5445 h -7.738002 v -46.73027 h 25.160588 z"
       class="cls-1" />
    <path
       style="fill:#44a4e0;stroke-width:0.60453129"
       inkscape:connector-curvature="0"
       id="path2415"
       d="m 134.29763,221.89016 h -7.31483 v -5.21106 h -0.12695 q -3.44583,5.9909 -10.11381,5.99695 -4.90879,0 -7.68359,-2.67202 -2.7748,-2.67203 -2.78084,-7.07303 0,-9.44882 10.88156,-11.00851 l 9.87804,-1.40251 q 0,-7.13347 -6.75866,-7.13347 a 16.026124,16.026124 0 0 0 -10.72438,4.10476 v -6.61357 a 23.334907,23.334907 0 0 1 12.15712,-3.13147 q 12.60448,0 12.61052,12.4473 z m -7.2846,-16.41303 -7.01256,1.00352 q -3.24634,0.42317 -4.89066,1.57783 -1.64432,1.15465 -1.6141,4.06849 a 4.44935,4.44935 0 0 0 1.51133,3.47002 5.839772,5.839772 0 0 0 4.04431,1.34811 7.4720064,7.4720064 0 0 0 5.70678,-2.41813 8.626661,8.626661 0 0 0 2.2549,-6.11182 z"
       class="cls-1" />
    <path
       style="fill:#44a4e0;stroke-width:0.60453129"
       inkscape:connector-curvature="0"
       id="path2417"
       d="m 172.18965,221.89016 h -9.55764 l -12.93696,-16.02613 h -0.133 v 16.02613 h -7.56873 v -49.39021 h 7.56873 v 31.30867 h 0.133 l 12.22361,-15.25837 h 9.06798 l -13.7531,16.09263 z"
       class="cls-1" />
    <path
       style="fill:#44a4e0;stroke-width:0.60453129"
       inkscape:connector-curvature="0"
       id="path2419"
       d="m 202.27717,207.29072 h -22.68805 c 0.0907,3.08312 1.03374,5.44079 2.84733,7.13348 1.8136,1.69268 4.29218,2.5088 7.45992,2.5088 a 16.43116,16.43116 0 0 0 9.78132,-3.19192 v 6.09367 q -4.55213,2.86548 -12.02413,2.86548 -7.34505,0 -11.52237,-4.54607 -4.17731,-4.54608 -4.17731,-12.78585 0,-7.7924 4.60048,-12.69515 a 15.034693,15.034693 0 0 1 11.4196,-4.90275 q 6.83121,0 10.56721,4.40099 3.736,4.40098 3.736,12.21758 z m -7.25438,-5.34405 q -0.0363,-4.08059 -1.91636,-6.34154 a 6.4201219,6.4201219 0 0 0 -5.20502,-2.26094 7.3148282,7.3148282 0 0 0 -5.50727,2.3758 10.929925,10.929925 0 0 0 -2.78085,6.22668 z"
       class="cls-1" />
    <path
       style="fill:#44a4e0;stroke-width:0.60453129"
       inkscape:connector-curvature="0"
       id="path2421"
       d="m 253.7651,181.74928 h -17.42259 v 14.05535 h 16.0503 v 6.55312 h -16.0503 v 19.5445 h -7.73196 v -46.73027 h 25.15455 z"
       class="cls-1" />
    <path
       style="fill:#44a4e0;stroke-width:0.60453129"
       inkscape:connector-curvature="0"
       id="path2423"
       d="m 263.13533,181.5256 a 4.5279391,4.5279391 0 0 1 -3.16774,-1.20906 3.9536344,3.9536344 0 0 1 -1.31788,-3.05893 4.0503594,4.0503594 0 0 1 1.31788,-3.0952 4.44935,4.44935 0 0 1 3.16774,-1.23929 4.6004828,4.6004828 0 0 1 3.25238,1.23929 4.0382688,4.0382688 0 0 1 1.32997,3.0952 3.9778157,3.9778157 0 0 1 -1.32997,3.02266 4.5642109,4.5642109 0 0 1 -3.25238,1.24533 z m 3.76624,40.36456 h -7.56873 v -33.33991 h 7.56873 z"
       class="cls-1" />
    <path
       style="fill:#44a4e0;stroke-width:0.60453129"
       inkscape:connector-curvature="0"
       id="path2425"
       d="m 282.54683,221.89016 h -7.57478 v -49.39021 h 7.57478 z"
       class="cls-1" />
    <path
       style="fill:#44a4e0;stroke-width:0.60453129"
       inkscape:connector-curvature="0"
       id="path2427"
       d="m 298.13165,221.89016 h -7.57478 v -49.39021 h 7.57478 z"
       class="cls-1" />
    <path
       style="fill:#44a4e0;stroke-width:0.60453129"
       inkscape:connector-curvature="0"
       id="path2429"
       d="m 334.76019,207.29072 h -22.68805 q 0.12695,4.62467 2.84129,7.13348 2.71435,2.5088 7.45992,2.5088 a 16.419069,16.419069 0 0 0 9.78132,-3.19192 v 6.09367 q -4.55212,2.86548 -12.02413,2.86548 -7.34505,0 -11.52236,-4.54607 -4.17732,-4.54608 -4.17732,-12.78585 0,-7.7924 4.60048,-12.69515 a 15.040738,15.040738 0 0 1 11.42565,-4.90275 q 6.81911,0 10.56116,4.40099 3.74204,4.40098 3.74204,12.21758 z m -7.25436,-5.34405 q 0,-4.08059 -1.91637,-6.34154 a 6.4140766,6.4140766 0 0 0 -5.19897,-2.26094 7.3148282,7.3148282 0 0 0 -5.51332,2.3758 10.881563,10.881563 0 0 0 -2.7748,6.22668 z"
       class="cls-1" />
    <path
       style="fill:#44a4e0;stroke-width:0.60453129"
       inkscape:connector-curvature="0"
       id="path2431"
       d="m 360.0961,195.73209 q -1.3602,-1.07607 -3.92945,-1.07607 -3.35515,0 -5.59191,3.02265 -2.23677,3.02266 -2.24282,8.24582 v 15.95962 h -7.54455 v -33.33386 h 7.54455 v 6.85539 h 0.12696 a 11.607,11.607 0 0 1 3.39746,-5.48915 7.6473204,7.6473204 0 0 1 5.12038,-1.97077 6.3475782,6.3475782 0 0 1 3.11938,0.60453 z"
       class="cls-1" />
    <text
       id="text6210"
       y="222.70024"
       x="369.25641"
       style="font-style:normal;font-variant:normal;font-weight:normal;font-stretch:normal;font-size:35.96379471px;line-height:34.21940613px;font-family:Cafeteria;-inkscape-font-specification:Cafeteria;letter-spacing:0px;word-spacing:0px;fill:#44a4e0;fill-opacity:1;stroke:none;stroke-width:0.89909494"
       xml:space="preserve"><tspan
         style="font-style:normal;font-variant:normal;font-weight:bold;font-stretch:normal;font-size:67.13241577px;font-family:Arial;-inkscape-font-specification:'Arial Bold';fill:#44a4e0;fill-opacity:1;stroke-width:0.89909494"
         y="222.70024"
         x="369.25641"
         id="tspan6208"
         sodipodi:role="line">2</tspan></text>
  </g>
</svg>
